# xmcd CD database file
#
# Track frame offsets:
#	150
#	7935
#	30690
#	49697
#	72477
#	90202
#	104290
#	118457
#	137270
#	153892
#	176320
#	193190
#	214875
#
# Disc length: 3123 seconds
#
# Revision: 3
# Processed by: cddbd v1.5PL3 Copyright (c) Steve Scherf et al.
# Submitted via: CDex 1.51
#
DISCID=a60c310d
DTITLE=Bernard Allison - Storms Of Life
DYEAR=2002
DGENRE=Blues
TTITLE0=Slip Slidin'
TTITLE1=Storms Of Life
TTITLE2=Down South
TTITLE3=Just Do me Anyway You Want
TTITLE4=I Think I Love You Too Much
TTITLE5=Mean Town Blues
TTITLE6=Speed Slide
TTITLE7=I Wanna Drive You Home
TTITLE8=Snake Bit Again
TTITLE9=Reaching Out
TTITLE10=Fistful Of Dirt
TTITLE11=Help Me Through The Day
TTITLE12=Goodbye Little Girl
EXTD=YEAR: 2002
EXTT0=
EXTT1=
EXTT2=
EXTT3=
EXTT4=
EXTT5=
EXTT6=
EXTT7=
EXTT8=
EXTT9=
EXTT10=
EXTT11=
EXTT12=
PLAYORDER=
